<svg xmlns="http://www.w3.org/2000/svg" width="12" height="11" viewBox="0 0 12 11"><defs><clipPath id="7jr8a"><path fill="#fff" d="M6 0c3.158 0 5.719 2.462 5.719 5.5 0 3.037-2.56 5.5-5.719 5.5C2.842 11 .281 8.537.281 5.5.281 2.462 2.841 0 6 0z"/></clipPath></defs><g><g><path fill="#5b5b5b" d="M6 0c3.158 0 5.719 2.462 5.719 5.5 0 3.037-2.56 5.5-5.719 5.5C2.842 11 .281 8.537.281 5.5.281 2.462 2.841 0 6 0z"/><path fill="none" stroke="#5b5b5b" stroke-linecap="round" stroke-linejoin="round" stroke-miterlimit="50" stroke-width="4" d="M6 0c3.158 0 5.719 2.462 5.719 5.5 0 3.037-2.56 5.5-5.719 5.5C2.842 11 .281 8.537.281 5.5.281 2.462 2.841 0 6 0z" clip-path="url(&quot;#7jr8a&quot;)"/></g></g></svg>